<mxfile host="Electron" modified="2024-04-24T06:33:06.182Z" agent="Mozilla/5.0 (Windows NT 10.0; Win64; x64) AppleWebKit/537.36 (KHTML, like Gecko) draw.io/24.2.5 Chrome/120.0.6099.109 Electron/28.1.0 Safari/537.36" etag="SgJvE1RPjC2LNinu8IYP" version="24.2.5" type="device">
  <diagram name="Page-1" id="oaUo-WbenHMAV_XajP27">
    <mxGraphModel dx="1953" dy="1136" grid="1" gridSize="10" guides="1" tooltips="1" connect="1" arrows="1" fold="1" page="1" pageScale="1" pageWidth="2000" pageHeight="2000" math="0" shadow="0">
      <root>
        <mxCell id="0" />
        <mxCell id="1" parent="0" />
        <mxCell id="vkavQpKFRlv0VeJYz5XR-65" value="" style="rhombus;whiteSpace=wrap;html=1;" vertex="1" parent="1">
          <mxGeometry x="1140" y="830" width="80" height="80" as="geometry" />
        </mxCell>
        <mxCell id="vkavQpKFRlv0VeJYz5XR-11" value="Transaction" style="rhombus;whiteSpace=wrap;html=1;" vertex="1" parent="1">
          <mxGeometry x="1140" y="810" width="80" height="120" as="geometry" />
        </mxCell>
        <mxCell id="vkavQpKFRlv0VeJYz5XR-79" style="edgeStyle=orthogonalEdgeStyle;rounded=0;orthogonalLoop=1;jettySize=auto;html=1;exitX=0.25;exitY=1;exitDx=0;exitDy=0;endArrow=none;endFill=0;startArrow=block;startFill=1;entryX=1;entryY=0.5;entryDx=0;entryDy=0;" edge="1" parent="1" source="y0bqGsKDebT5sbNC3E2F-1" target="vkavQpKFRlv0VeJYz5XR-121">
          <mxGeometry relative="1" as="geometry">
            <mxPoint x="970" y="810" as="targetPoint" />
          </mxGeometry>
        </mxCell>
        <mxCell id="y0bqGsKDebT5sbNC3E2F-1" value="Stock" style="rounded=0;whiteSpace=wrap;html=1;" parent="1" vertex="1">
          <mxGeometry x="940" y="630" width="120" height="60" as="geometry" />
        </mxCell>
        <mxCell id="y0bqGsKDebT5sbNC3E2F-2" value="" style="endArrow=none;html=1;rounded=0;" parent="1" edge="1">
          <mxGeometry width="50" height="50" relative="1" as="geometry">
            <mxPoint x="840" y="590" as="sourcePoint" />
            <mxPoint x="940" y="630" as="targetPoint" />
          </mxGeometry>
        </mxCell>
        <mxCell id="y0bqGsKDebT5sbNC3E2F-3" value="&lt;u&gt;symbol&lt;/u&gt;" style="ellipse;whiteSpace=wrap;html=1;" parent="1" vertex="1">
          <mxGeometry x="750" y="560" width="110" height="40" as="geometry" />
        </mxCell>
        <mxCell id="y0bqGsKDebT5sbNC3E2F-4" value="" style="endArrow=none;html=1;rounded=0;" parent="1" source="y0bqGsKDebT5sbNC3E2F-1" edge="1">
          <mxGeometry width="50" height="50" relative="1" as="geometry">
            <mxPoint x="869.2893218813452" y="710" as="sourcePoint" />
            <mxPoint x="830" y="650" as="targetPoint" />
          </mxGeometry>
        </mxCell>
        <mxCell id="y0bqGsKDebT5sbNC3E2F-5" value="" style="endArrow=none;html=1;rounded=0;" parent="1" edge="1">
          <mxGeometry width="50" height="50" relative="1" as="geometry">
            <mxPoint x="830" y="700" as="sourcePoint" />
            <mxPoint x="940" y="690" as="targetPoint" />
          </mxGeometry>
        </mxCell>
        <mxCell id="y0bqGsKDebT5sbNC3E2F-6" value="stock_exchange" style="ellipse;whiteSpace=wrap;html=1;" parent="1" vertex="1">
          <mxGeometry x="730" y="680" width="110" height="40" as="geometry" />
        </mxCell>
        <mxCell id="y0bqGsKDebT5sbNC3E2F-7" value="company_name" style="ellipse;whiteSpace=wrap;html=1;" parent="1" vertex="1">
          <mxGeometry x="730" y="630" width="110" height="40" as="geometry" />
        </mxCell>
        <mxCell id="y0bqGsKDebT5sbNC3E2F-8" value="stock_id" style="ellipse;whiteSpace=wrap;html=1;fontStyle=4" parent="1" vertex="1">
          <mxGeometry x="780" y="500" width="110" height="40" as="geometry" />
        </mxCell>
        <mxCell id="y0bqGsKDebT5sbNC3E2F-9" value="" style="endArrow=none;html=1;rounded=0;entryX=1;entryY=1;entryDx=0;entryDy=0;" parent="1" target="y0bqGsKDebT5sbNC3E2F-8" edge="1">
          <mxGeometry width="50" height="50" relative="1" as="geometry">
            <mxPoint x="950" y="630" as="sourcePoint" />
            <mxPoint x="1000" y="580" as="targetPoint" />
          </mxGeometry>
        </mxCell>
        <mxCell id="vkavQpKFRlv0VeJYz5XR-85" style="edgeStyle=orthogonalEdgeStyle;rounded=0;orthogonalLoop=1;jettySize=auto;html=1;exitX=0.75;exitY=0;exitDx=0;exitDy=0;entryX=0;entryY=1;entryDx=0;entryDy=0;endArrow=none;endFill=0;" edge="1" parent="1" source="vkavQpKFRlv0VeJYz5XR-1" target="vkavQpKFRlv0VeJYz5XR-11">
          <mxGeometry relative="1" as="geometry">
            <Array as="points">
              <mxPoint x="1050" y="900" />
            </Array>
          </mxGeometry>
        </mxCell>
        <mxCell id="vkavQpKFRlv0VeJYz5XR-86" style="edgeStyle=orthogonalEdgeStyle;rounded=0;orthogonalLoop=1;jettySize=auto;html=1;exitX=1;exitY=0.25;exitDx=0;exitDy=0;entryX=0.5;entryY=1;entryDx=0;entryDy=0;" edge="1" parent="1" source="vkavQpKFRlv0VeJYz5XR-1" target="vkavQpKFRlv0VeJYz5XR-11">
          <mxGeometry relative="1" as="geometry" />
        </mxCell>
        <mxCell id="vkavQpKFRlv0VeJYz5XR-1" value="Account" style="rounded=0;whiteSpace=wrap;html=1;" vertex="1" parent="1">
          <mxGeometry x="960" y="970" width="120" height="60" as="geometry" />
        </mxCell>
        <mxCell id="vkavQpKFRlv0VeJYz5XR-2" value="" style="endArrow=none;html=1;rounded=0;exitX=1;exitY=0.5;exitDx=0;exitDy=0;entryX=0;entryY=0.5;entryDx=0;entryDy=0;" edge="1" parent="1" source="vkavQpKFRlv0VeJYz5XR-3" target="vkavQpKFRlv0VeJYz5XR-1">
          <mxGeometry width="50" height="50" relative="1" as="geometry">
            <mxPoint x="860" y="930" as="sourcePoint" />
            <mxPoint x="960" y="970" as="targetPoint" />
          </mxGeometry>
        </mxCell>
        <mxCell id="vkavQpKFRlv0VeJYz5XR-3" value="date_opened" style="ellipse;whiteSpace=wrap;html=1;" vertex="1" parent="1">
          <mxGeometry x="770" y="960" width="110" height="40" as="geometry" />
        </mxCell>
        <mxCell id="vkavQpKFRlv0VeJYz5XR-4" value="" style="endArrow=none;html=1;rounded=0;entryX=1;entryY=0.5;entryDx=0;entryDy=0;" edge="1" parent="1" source="vkavQpKFRlv0VeJYz5XR-1" target="vkavQpKFRlv0VeJYz5XR-7">
          <mxGeometry width="50" height="50" relative="1" as="geometry">
            <mxPoint x="889.2893218813452" y="1050" as="sourcePoint" />
            <mxPoint x="850" y="990" as="targetPoint" />
          </mxGeometry>
        </mxCell>
        <mxCell id="vkavQpKFRlv0VeJYz5XR-5" value="" style="endArrow=none;html=1;rounded=0;entryX=0.25;entryY=1;entryDx=0;entryDy=0;exitX=0.791;exitY=0.006;exitDx=0;exitDy=0;exitPerimeter=0;" edge="1" parent="1" target="vkavQpKFRlv0VeJYz5XR-1" source="vkavQpKFRlv0VeJYz5XR-23">
          <mxGeometry width="50" height="50" relative="1" as="geometry">
            <mxPoint x="850" y="1040" as="sourcePoint" />
            <mxPoint x="960" y="1030" as="targetPoint" />
          </mxGeometry>
        </mxCell>
        <mxCell id="vkavQpKFRlv0VeJYz5XR-6" value="account_balance" style="ellipse;whiteSpace=wrap;html=1;" vertex="1" parent="1">
          <mxGeometry x="1000" y="1130" width="110" height="40" as="geometry" />
        </mxCell>
        <mxCell id="vkavQpKFRlv0VeJYz5XR-7" value="date_closed" style="ellipse;whiteSpace=wrap;html=1;" vertex="1" parent="1">
          <mxGeometry x="770" y="1020" width="110" height="40" as="geometry" />
        </mxCell>
        <mxCell id="vkavQpKFRlv0VeJYz5XR-8" value="&lt;u&gt;account_id&lt;/u&gt;" style="ellipse;whiteSpace=wrap;html=1;" vertex="1" parent="1">
          <mxGeometry x="840" y="870" width="110" height="40" as="geometry" />
        </mxCell>
        <mxCell id="vkavQpKFRlv0VeJYz5XR-9" value="" style="endArrow=none;html=1;rounded=0;entryX=1;entryY=1;entryDx=0;entryDy=0;exitX=0;exitY=0;exitDx=0;exitDy=0;" edge="1" parent="1" target="vkavQpKFRlv0VeJYz5XR-8" source="vkavQpKFRlv0VeJYz5XR-1">
          <mxGeometry width="50" height="50" relative="1" as="geometry">
            <mxPoint x="970" y="970" as="sourcePoint" />
            <mxPoint x="1020" y="920" as="targetPoint" />
          </mxGeometry>
        </mxCell>
        <mxCell id="vkavQpKFRlv0VeJYz5XR-13" value="" style="endArrow=none;html=1;rounded=0;exitX=0.813;exitY=0.667;exitDx=0;exitDy=0;exitPerimeter=0;entryX=0;entryY=0.5;entryDx=0;entryDy=0;" edge="1" parent="1" source="vkavQpKFRlv0VeJYz5XR-11" target="vkavQpKFRlv0VeJYz5XR-17">
          <mxGeometry width="50" height="50" relative="1" as="geometry">
            <mxPoint x="1230" y="880" as="sourcePoint" />
            <mxPoint x="1300" y="920" as="targetPoint" />
          </mxGeometry>
        </mxCell>
        <mxCell id="vkavQpKFRlv0VeJYz5XR-14" value="account_id" style="ellipse;whiteSpace=wrap;html=1;fontStyle=4" vertex="1" parent="1">
          <mxGeometry x="1280" y="800" width="110" height="40" as="geometry" />
        </mxCell>
        <mxCell id="vkavQpKFRlv0VeJYz5XR-16" value="quantity" style="ellipse;whiteSpace=wrap;html=1;" vertex="1" parent="1">
          <mxGeometry x="1250" y="990" width="110" height="40" as="geometry" />
        </mxCell>
        <mxCell id="vkavQpKFRlv0VeJYz5XR-17" value="transaction_date" style="ellipse;whiteSpace=wrap;html=1;" vertex="1" parent="1">
          <mxGeometry x="1280" y="860" width="110" height="40" as="geometry" />
        </mxCell>
        <mxCell id="vkavQpKFRlv0VeJYz5XR-19" value="" style="endArrow=none;html=1;rounded=0;exitX=1;exitY=0;exitDx=0;exitDy=0;" edge="1" parent="1" source="vkavQpKFRlv0VeJYz5XR-11">
          <mxGeometry width="50" height="50" relative="1" as="geometry">
            <mxPoint x="1235" y="920" as="sourcePoint" />
            <mxPoint x="1280" y="820" as="targetPoint" />
          </mxGeometry>
        </mxCell>
        <mxCell id="vkavQpKFRlv0VeJYz5XR-20" value="" style="endArrow=none;html=1;rounded=0;exitX=1;exitY=1;exitDx=0;exitDy=0;entryX=0;entryY=0.5;entryDx=0;entryDy=0;" edge="1" parent="1" source="vkavQpKFRlv0VeJYz5XR-11" target="vkavQpKFRlv0VeJYz5XR-29">
          <mxGeometry width="50" height="50" relative="1" as="geometry">
            <mxPoint x="1245" y="930" as="sourcePoint" />
            <mxPoint x="1340" y="1020" as="targetPoint" />
          </mxGeometry>
        </mxCell>
        <mxCell id="vkavQpKFRlv0VeJYz5XR-21" value="" style="endArrow=none;html=1;rounded=0;exitX=0.563;exitY=0.917;exitDx=0;exitDy=0;exitPerimeter=0;entryX=0;entryY=0;entryDx=0;entryDy=0;" edge="1" parent="1" source="vkavQpKFRlv0VeJYz5XR-11" target="vkavQpKFRlv0VeJYz5XR-16">
          <mxGeometry width="50" height="50" relative="1" as="geometry">
            <mxPoint x="1255" y="940" as="sourcePoint" />
            <mxPoint x="1260" y="1040" as="targetPoint" />
          </mxGeometry>
        </mxCell>
        <mxCell id="vkavQpKFRlv0VeJYz5XR-22" value="" style="endArrow=none;html=1;rounded=0;exitX=0.5;exitY=0;exitDx=0;exitDy=0;entryX=0;entryY=1;entryDx=0;entryDy=0;" edge="1" parent="1" source="vkavQpKFRlv0VeJYz5XR-11" target="vkavQpKFRlv0VeJYz5XR-30">
          <mxGeometry width="50" height="50" relative="1" as="geometry">
            <mxPoint x="1180" y="810" as="sourcePoint" />
            <mxPoint x="1197" y="770" as="targetPoint" />
          </mxGeometry>
        </mxCell>
        <mxCell id="vkavQpKFRlv0VeJYz5XR-23" value="customer_id" style="ellipse;whiteSpace=wrap;html=1;" vertex="1" parent="1">
          <mxGeometry x="780" y="1080" width="110" height="40" as="geometry" />
        </mxCell>
        <mxCell id="vkavQpKFRlv0VeJYz5XR-24" value="account_type" style="ellipse;whiteSpace=wrap;html=1;" vertex="1" parent="1">
          <mxGeometry x="770" y="910" width="110" height="40" as="geometry" />
        </mxCell>
        <mxCell id="vkavQpKFRlv0VeJYz5XR-25" value="account_name" style="ellipse;whiteSpace=wrap;html=1;" vertex="1" parent="1">
          <mxGeometry x="880" y="1110" width="110" height="40" as="geometry" />
        </mxCell>
        <mxCell id="vkavQpKFRlv0VeJYz5XR-26" value="" style="endArrow=none;html=1;rounded=0;entryX=0.5;entryY=0;entryDx=0;entryDy=0;exitX=0.75;exitY=1;exitDx=0;exitDy=0;" edge="1" parent="1" source="vkavQpKFRlv0VeJYz5XR-1" target="vkavQpKFRlv0VeJYz5XR-6">
          <mxGeometry width="50" height="50" relative="1" as="geometry">
            <mxPoint x="990" y="1030" as="sourcePoint" />
            <mxPoint x="904" y="884" as="targetPoint" />
          </mxGeometry>
        </mxCell>
        <mxCell id="vkavQpKFRlv0VeJYz5XR-27" value="" style="endArrow=none;html=1;rounded=0;entryX=1;entryY=1;entryDx=0;entryDy=0;exitX=0;exitY=0.25;exitDx=0;exitDy=0;" edge="1" parent="1" source="vkavQpKFRlv0VeJYz5XR-1" target="vkavQpKFRlv0VeJYz5XR-24">
          <mxGeometry width="50" height="50" relative="1" as="geometry">
            <mxPoint x="990" y="990" as="sourcePoint" />
            <mxPoint x="914" y="894" as="targetPoint" />
          </mxGeometry>
        </mxCell>
        <mxCell id="vkavQpKFRlv0VeJYz5XR-28" value="" style="endArrow=none;html=1;rounded=0;entryX=1;entryY=0;entryDx=0;entryDy=0;exitX=0.5;exitY=1;exitDx=0;exitDy=0;" edge="1" parent="1" target="vkavQpKFRlv0VeJYz5XR-25" source="vkavQpKFRlv0VeJYz5XR-1">
          <mxGeometry width="50" height="50" relative="1" as="geometry">
            <mxPoint x="960" y="1030" as="sourcePoint" />
            <mxPoint x="924" y="904" as="targetPoint" />
          </mxGeometry>
        </mxCell>
        <mxCell id="vkavQpKFRlv0VeJYz5XR-29" value="stock_price" style="ellipse;whiteSpace=wrap;html=1;" vertex="1" parent="1">
          <mxGeometry x="1290" y="930" width="110" height="40" as="geometry" />
        </mxCell>
        <mxCell id="vkavQpKFRlv0VeJYz5XR-30" value="transaction_type" style="ellipse;whiteSpace=wrap;html=1;" vertex="1" parent="1">
          <mxGeometry x="1210" y="740" width="110" height="40" as="geometry" />
        </mxCell>
        <mxCell id="vkavQpKFRlv0VeJYz5XR-40" value="" style="rhombus;whiteSpace=wrap;html=1;" vertex="1" parent="1">
          <mxGeometry x="1050" y="440" width="80" height="120" as="geometry" />
        </mxCell>
        <mxCell id="vkavQpKFRlv0VeJYz5XR-41" value="" style="endArrow=classic;html=1;rounded=0;endFill=1;entryX=0;entryY=0.429;entryDx=0;entryDy=0;entryPerimeter=0;" edge="1" parent="1" target="vkavQpKFRlv0VeJYz5XR-46">
          <mxGeometry width="50" height="50" relative="1" as="geometry">
            <mxPoint x="1130" y="500" as="sourcePoint" />
            <mxPoint x="1180" y="500" as="targetPoint" />
          </mxGeometry>
        </mxCell>
        <mxCell id="vkavQpKFRlv0VeJYz5XR-45" value="Has" style="rhombus;whiteSpace=wrap;html=1;" vertex="1" parent="1">
          <mxGeometry x="1060" y="460" width="60" height="80" as="geometry" />
        </mxCell>
        <mxCell id="vkavQpKFRlv0VeJYz5XR-46" value="" style="rounded=0;whiteSpace=wrap;html=1;" vertex="1" parent="1">
          <mxGeometry x="1170" y="470" width="130" height="70" as="geometry" />
        </mxCell>
        <mxCell id="vkavQpKFRlv0VeJYz5XR-47" value="DailyStockMetric" style="rounded=0;whiteSpace=wrap;html=1;" vertex="1" parent="1">
          <mxGeometry x="1180" y="480" width="110" height="50" as="geometry" />
        </mxCell>
        <mxCell id="vkavQpKFRlv0VeJYz5XR-48" value="" style="endArrow=none;html=1;rounded=0;" edge="1" parent="1">
          <mxGeometry width="50" height="50" relative="1" as="geometry">
            <mxPoint x="1300" y="510" as="sourcePoint" />
            <mxPoint x="1350" y="460" as="targetPoint" />
          </mxGeometry>
        </mxCell>
        <mxCell id="vkavQpKFRlv0VeJYz5XR-49" value="" style="endArrow=none;html=1;rounded=0;" edge="1" parent="1">
          <mxGeometry width="50" height="50" relative="1" as="geometry">
            <mxPoint x="1300" y="510" as="sourcePoint" />
            <mxPoint x="1360" y="510" as="targetPoint" />
          </mxGeometry>
        </mxCell>
        <mxCell id="vkavQpKFRlv0VeJYz5XR-50" value="" style="endArrow=none;html=1;rounded=0;exitX=0.5;exitY=1;exitDx=0;exitDy=0;" edge="1" parent="1" source="vkavQpKFRlv0VeJYz5XR-46">
          <mxGeometry width="50" height="50" relative="1" as="geometry">
            <mxPoint x="1290" y="630" as="sourcePoint" />
            <mxPoint x="1250" y="600" as="targetPoint" />
          </mxGeometry>
        </mxCell>
        <mxCell id="vkavQpKFRlv0VeJYz5XR-51" value="" style="endArrow=none;html=1;rounded=0;exitX=1.008;exitY=0.6;exitDx=0;exitDy=0;exitPerimeter=0;" edge="1" parent="1" source="vkavQpKFRlv0VeJYz5XR-46">
          <mxGeometry width="50" height="50" relative="1" as="geometry">
            <mxPoint x="1310" y="650" as="sourcePoint" />
            <mxPoint x="1350" y="550" as="targetPoint" />
          </mxGeometry>
        </mxCell>
        <mxCell id="vkavQpKFRlv0VeJYz5XR-52" value="date" style="ellipse;whiteSpace=wrap;html=1;" vertex="1" parent="1">
          <mxGeometry x="1280" y="370" width="110" height="40" as="geometry" />
        </mxCell>
        <mxCell id="vkavQpKFRlv0VeJYz5XR-53" value="open_price" style="ellipse;whiteSpace=wrap;html=1;" vertex="1" parent="1">
          <mxGeometry x="1330" y="430" width="110" height="40" as="geometry" />
        </mxCell>
        <mxCell id="vkavQpKFRlv0VeJYz5XR-54" value="close_price" style="ellipse;whiteSpace=wrap;html=1;" vertex="1" parent="1">
          <mxGeometry x="1350" y="490" width="110" height="40" as="geometry" />
        </mxCell>
        <mxCell id="vkavQpKFRlv0VeJYz5XR-55" value="high_price" style="ellipse;whiteSpace=wrap;html=1;" vertex="1" parent="1">
          <mxGeometry x="1310" y="550" width="110" height="40" as="geometry" />
        </mxCell>
        <mxCell id="vkavQpKFRlv0VeJYz5XR-56" value="low_price" style="ellipse;whiteSpace=wrap;html=1;" vertex="1" parent="1">
          <mxGeometry x="1230" y="590" width="110" height="40" as="geometry" />
        </mxCell>
        <mxCell id="vkavQpKFRlv0VeJYz5XR-58" value="" style="endArrow=none;html=1;rounded=0;exitX=0.75;exitY=0;exitDx=0;exitDy=0;" edge="1" parent="1" source="vkavQpKFRlv0VeJYz5XR-46">
          <mxGeometry width="50" height="50" relative="1" as="geometry">
            <mxPoint x="1223" y="490" as="sourcePoint" />
            <mxPoint x="1310" y="410" as="targetPoint" />
          </mxGeometry>
        </mxCell>
        <mxCell id="vkavQpKFRlv0VeJYz5XR-63" style="edgeStyle=orthogonalEdgeStyle;rounded=0;orthogonalLoop=1;jettySize=auto;html=1;exitX=1;exitY=0.5;exitDx=0;exitDy=0;entryX=0.375;entryY=0.085;entryDx=0;entryDy=0;entryPerimeter=0;" edge="1" parent="1" source="y0bqGsKDebT5sbNC3E2F-1" target="vkavQpKFRlv0VeJYz5XR-11">
          <mxGeometry relative="1" as="geometry">
            <Array as="points">
              <mxPoint x="1120" y="660" />
              <mxPoint x="1120" y="820" />
            </Array>
          </mxGeometry>
        </mxCell>
        <mxCell id="vkavQpKFRlv0VeJYz5XR-66" style="edgeStyle=orthogonalEdgeStyle;rounded=0;orthogonalLoop=1;jettySize=auto;html=1;exitX=0.5;exitY=1;exitDx=0;exitDy=0;entryX=0.892;entryY=-0.029;entryDx=0;entryDy=0;entryPerimeter=0;endArrow=none;endFill=0;" edge="1" parent="1" source="vkavQpKFRlv0VeJYz5XR-40" target="y0bqGsKDebT5sbNC3E2F-1">
          <mxGeometry relative="1" as="geometry" />
        </mxCell>
        <mxCell id="vkavQpKFRlv0VeJYz5XR-78" style="rounded=0;orthogonalLoop=1;jettySize=auto;html=1;exitX=0;exitY=0.25;exitDx=0;exitDy=0;entryX=1;entryY=0.5;entryDx=0;entryDy=0;endArrow=none;endFill=0;" edge="1" parent="1" source="vkavQpKFRlv0VeJYz5XR-68" target="vkavQpKFRlv0VeJYz5XR-73">
          <mxGeometry relative="1" as="geometry" />
        </mxCell>
        <mxCell id="vkavQpKFRlv0VeJYz5XR-68" value="" style="rounded=0;whiteSpace=wrap;html=1;" vertex="1" parent="1">
          <mxGeometry x="570" y="760" width="140" height="80" as="geometry" />
        </mxCell>
        <mxCell id="vkavQpKFRlv0VeJYz5XR-67" value="StockHolding" style="rounded=0;whiteSpace=wrap;html=1;" vertex="1" parent="1">
          <mxGeometry x="580" y="770" width="120" height="60" as="geometry" />
        </mxCell>
        <mxCell id="vkavQpKFRlv0VeJYz5XR-70" style="edgeStyle=orthogonalEdgeStyle;rounded=0;orthogonalLoop=1;jettySize=auto;html=1;exitX=0.75;exitY=1;exitDx=0;exitDy=0;entryX=0.1;entryY=0.377;entryDx=0;entryDy=0;entryPerimeter=0;endArrow=none;endFill=0;" edge="1" parent="1" source="y0bqGsKDebT5sbNC3E2F-1" target="vkavQpKFRlv0VeJYz5XR-11">
          <mxGeometry relative="1" as="geometry">
            <Array as="points">
              <mxPoint x="1030" y="855" />
            </Array>
          </mxGeometry>
        </mxCell>
        <mxCell id="vkavQpKFRlv0VeJYz5XR-73" value="quantity" style="ellipse;whiteSpace=wrap;html=1;" vertex="1" parent="1">
          <mxGeometry x="400" y="720" width="110" height="40" as="geometry" />
        </mxCell>
        <mxCell id="vkavQpKFRlv0VeJYz5XR-75" style="rounded=0;orthogonalLoop=1;jettySize=auto;html=1;exitX=1;exitY=0.5;exitDx=0;exitDy=0;entryX=0;entryY=0.75;entryDx=0;entryDy=0;endArrow=none;endFill=0;" edge="1" parent="1" source="vkavQpKFRlv0VeJYz5XR-74" target="vkavQpKFRlv0VeJYz5XR-68">
          <mxGeometry relative="1" as="geometry">
            <mxPoint x="560" y="820" as="targetPoint" />
          </mxGeometry>
        </mxCell>
        <mxCell id="vkavQpKFRlv0VeJYz5XR-74" value="stock_holding" style="ellipse;whiteSpace=wrap;html=1;" vertex="1" parent="1">
          <mxGeometry x="410" y="820" width="110" height="40" as="geometry" />
        </mxCell>
        <mxCell id="vkavQpKFRlv0VeJYz5XR-80" style="edgeStyle=orthogonalEdgeStyle;rounded=0;orthogonalLoop=1;jettySize=auto;html=1;exitX=0.25;exitY=0;exitDx=0;exitDy=0;endArrow=none;endFill=0;startArrow=none;startFill=0;entryX=1;entryY=0.5;entryDx=0;entryDy=0;" edge="1" parent="1" source="vkavQpKFRlv0VeJYz5XR-1" target="vkavQpKFRlv0VeJYz5XR-123">
          <mxGeometry relative="1" as="geometry">
            <mxPoint x="990" y="829" as="targetPoint" />
          </mxGeometry>
        </mxCell>
        <mxCell id="vkavQpKFRlv0VeJYz5XR-89" style="edgeStyle=orthogonalEdgeStyle;rounded=0;orthogonalLoop=1;jettySize=auto;html=1;exitX=1;exitY=0.5;exitDx=0;exitDy=0;entryX=0;entryY=0.5;entryDx=0;entryDy=0;endArrow=none;endFill=0;" edge="1" parent="1" source="vkavQpKFRlv0VeJYz5XR-82">
          <mxGeometry relative="1" as="geometry">
            <mxPoint x="1520" y="1170" as="targetPoint" />
          </mxGeometry>
        </mxCell>
        <mxCell id="vkavQpKFRlv0VeJYz5XR-117" style="edgeStyle=orthogonalEdgeStyle;rounded=0;orthogonalLoop=1;jettySize=auto;html=1;exitX=0;exitY=0.25;exitDx=0;exitDy=0;entryX=1;entryY=0.5;entryDx=0;entryDy=0;endArrow=none;endFill=0;" edge="1" parent="1" source="vkavQpKFRlv0VeJYz5XR-82">
          <mxGeometry relative="1" as="geometry">
            <mxPoint x="1190" y="1160" as="targetPoint" />
            <Array as="points">
              <mxPoint x="1310" y="1160" />
            </Array>
          </mxGeometry>
        </mxCell>
        <mxCell id="vkavQpKFRlv0VeJYz5XR-82" value="Customer" style="rounded=0;whiteSpace=wrap;html=1;" vertex="1" parent="1">
          <mxGeometry x="1310" y="1140" width="120" height="60" as="geometry" />
        </mxCell>
        <mxCell id="vkavQpKFRlv0VeJYz5XR-90" value="phone_number" style="ellipse;whiteSpace=wrap;html=1;" vertex="1" parent="1">
          <mxGeometry x="1610" y="1230" width="110" height="40" as="geometry" />
        </mxCell>
        <mxCell id="vkavQpKFRlv0VeJYz5XR-91" value="state" style="ellipse;whiteSpace=wrap;html=1;" vertex="1" parent="1">
          <mxGeometry x="1660" y="1150" width="110" height="40" as="geometry" />
        </mxCell>
        <mxCell id="vkavQpKFRlv0VeJYz5XR-103" style="rounded=0;orthogonalLoop=1;jettySize=auto;html=1;exitX=0;exitY=1;exitDx=0;exitDy=0;entryX=1;entryY=0;entryDx=0;entryDy=0;strokeColor=default;align=center;verticalAlign=middle;fontFamily=Helvetica;fontSize=11;fontColor=default;labelBackgroundColor=default;endArrow=none;endFill=0;" edge="1" parent="1" source="vkavQpKFRlv0VeJYz5XR-92" target="vkavQpKFRlv0VeJYz5XR-114">
          <mxGeometry relative="1" as="geometry">
            <mxPoint x="1640" y="1185" as="targetPoint" />
          </mxGeometry>
        </mxCell>
        <mxCell id="vkavQpKFRlv0VeJYz5XR-92" value="city" style="ellipse;whiteSpace=wrap;html=1;" vertex="1" parent="1">
          <mxGeometry x="1620" y="1080" width="110" height="40" as="geometry" />
        </mxCell>
        <mxCell id="vkavQpKFRlv0VeJYz5XR-104" style="rounded=0;orthogonalLoop=1;jettySize=auto;html=1;exitX=0.5;exitY=1;exitDx=0;exitDy=0;entryX=0;entryY=0;entryDx=0;entryDy=0;strokeColor=default;align=center;verticalAlign=middle;fontFamily=Helvetica;fontSize=11;fontColor=default;labelBackgroundColor=default;endArrow=none;endFill=0;" edge="1" parent="1" source="vkavQpKFRlv0VeJYz5XR-93" target="vkavQpKFRlv0VeJYz5XR-114">
          <mxGeometry relative="1" as="geometry">
            <mxPoint x="1640" y="1140" as="targetPoint" />
          </mxGeometry>
        </mxCell>
        <mxCell id="vkavQpKFRlv0VeJYz5XR-93" value="address" style="ellipse;whiteSpace=wrap;html=1;" vertex="1" parent="1">
          <mxGeometry x="1470" y="1060" width="110" height="40" as="geometry" />
        </mxCell>
        <mxCell id="vkavQpKFRlv0VeJYz5XR-111" style="rounded=0;orthogonalLoop=1;jettySize=auto;html=1;exitX=0;exitY=0;exitDx=0;exitDy=0;entryX=1;entryY=1;entryDx=0;entryDy=0;strokeColor=default;align=center;verticalAlign=middle;fontFamily=Helvetica;fontSize=11;fontColor=default;labelBackgroundColor=default;endArrow=none;endFill=0;" edge="1" parent="1" source="vkavQpKFRlv0VeJYz5XR-95" target="vkavQpKFRlv0VeJYz5XR-82">
          <mxGeometry relative="1" as="geometry" />
        </mxCell>
        <mxCell id="vkavQpKFRlv0VeJYz5XR-95" value="ssn" style="ellipse;whiteSpace=wrap;html=1;" vertex="1" parent="1">
          <mxGeometry x="1450" y="1240" width="110" height="40" as="geometry" />
        </mxCell>
        <mxCell id="vkavQpKFRlv0VeJYz5XR-109" style="rounded=0;orthogonalLoop=1;jettySize=auto;html=1;exitX=0.5;exitY=0;exitDx=0;exitDy=0;entryX=0.5;entryY=1;entryDx=0;entryDy=0;strokeColor=default;align=center;verticalAlign=middle;fontFamily=Helvetica;fontSize=11;fontColor=default;labelBackgroundColor=default;endArrow=none;endFill=0;" edge="1" parent="1" source="vkavQpKFRlv0VeJYz5XR-96" target="vkavQpKFRlv0VeJYz5XR-82">
          <mxGeometry relative="1" as="geometry" />
        </mxCell>
        <mxCell id="vkavQpKFRlv0VeJYz5XR-96" value="email" style="ellipse;whiteSpace=wrap;html=1;" vertex="1" parent="1">
          <mxGeometry x="1360" y="1360" width="110" height="40" as="geometry" />
        </mxCell>
        <mxCell id="vkavQpKFRlv0VeJYz5XR-110" style="rounded=0;orthogonalLoop=1;jettySize=auto;html=1;exitX=0;exitY=0;exitDx=0;exitDy=0;entryX=0.75;entryY=1;entryDx=0;entryDy=0;strokeColor=default;align=center;verticalAlign=middle;fontFamily=Helvetica;fontSize=11;fontColor=default;labelBackgroundColor=default;endArrow=none;endFill=0;" edge="1" parent="1" source="vkavQpKFRlv0VeJYz5XR-97" target="vkavQpKFRlv0VeJYz5XR-82">
          <mxGeometry relative="1" as="geometry" />
        </mxCell>
        <mxCell id="vkavQpKFRlv0VeJYz5XR-97" value="date_of_birth" style="ellipse;whiteSpace=wrap;html=1;" vertex="1" parent="1">
          <mxGeometry x="1420" y="1300" width="110" height="40" as="geometry" />
        </mxCell>
        <mxCell id="vkavQpKFRlv0VeJYz5XR-108" style="rounded=0;orthogonalLoop=1;jettySize=auto;html=1;exitX=0.5;exitY=0;exitDx=0;exitDy=0;entryX=0.25;entryY=1;entryDx=0;entryDy=0;strokeColor=default;align=center;verticalAlign=middle;fontFamily=Helvetica;fontSize=11;fontColor=default;labelBackgroundColor=default;endArrow=none;endFill=0;" edge="1" parent="1" source="vkavQpKFRlv0VeJYz5XR-98" target="vkavQpKFRlv0VeJYz5XR-82">
          <mxGeometry relative="1" as="geometry" />
        </mxCell>
        <mxCell id="vkavQpKFRlv0VeJYz5XR-98" value="last_name" style="ellipse;whiteSpace=wrap;html=1;" vertex="1" parent="1">
          <mxGeometry x="1270" y="1330" width="110" height="40" as="geometry" />
        </mxCell>
        <mxCell id="vkavQpKFRlv0VeJYz5XR-107" style="rounded=0;orthogonalLoop=1;jettySize=auto;html=1;exitX=1;exitY=0;exitDx=0;exitDy=0;strokeColor=default;align=center;verticalAlign=middle;fontFamily=Helvetica;fontSize=11;fontColor=default;labelBackgroundColor=default;endArrow=none;endFill=0;entryX=0;entryY=1;entryDx=0;entryDy=0;" edge="1" parent="1" source="vkavQpKFRlv0VeJYz5XR-99" target="vkavQpKFRlv0VeJYz5XR-82">
          <mxGeometry relative="1" as="geometry">
            <mxPoint x="1310" y="1210" as="targetPoint" />
          </mxGeometry>
        </mxCell>
        <mxCell id="vkavQpKFRlv0VeJYz5XR-99" value="first_name" style="ellipse;whiteSpace=wrap;html=1;" vertex="1" parent="1">
          <mxGeometry x="1200" y="1290" width="110" height="40" as="geometry" />
        </mxCell>
        <mxCell id="vkavQpKFRlv0VeJYz5XR-106" style="rounded=0;orthogonalLoop=1;jettySize=auto;html=1;exitX=1;exitY=0;exitDx=0;exitDy=0;entryX=0;entryY=0.75;entryDx=0;entryDy=0;strokeColor=default;align=center;verticalAlign=middle;fontFamily=Helvetica;fontSize=11;fontColor=default;labelBackgroundColor=default;endArrow=none;endFill=0;" edge="1" parent="1" source="vkavQpKFRlv0VeJYz5XR-100" target="vkavQpKFRlv0VeJYz5XR-82">
          <mxGeometry relative="1" as="geometry" />
        </mxCell>
        <mxCell id="vkavQpKFRlv0VeJYz5XR-100" value="&lt;u&gt;customer_id&lt;/u&gt;" style="ellipse;whiteSpace=wrap;html=1;" vertex="1" parent="1">
          <mxGeometry x="1170" y="1230" width="110" height="40" as="geometry" />
        </mxCell>
        <mxCell id="vkavQpKFRlv0VeJYz5XR-101" style="rounded=0;orthogonalLoop=1;jettySize=auto;html=1;entryX=1;entryY=1;entryDx=0;entryDy=0;strokeColor=default;align=center;verticalAlign=middle;fontFamily=Helvetica;fontSize=11;fontColor=default;labelBackgroundColor=default;endArrow=none;endFill=0;exitX=0.5;exitY=0;exitDx=0;exitDy=0;" edge="1" parent="1" source="vkavQpKFRlv0VeJYz5XR-90" target="vkavQpKFRlv0VeJYz5XR-114">
          <mxGeometry relative="1" as="geometry">
            <mxPoint x="1665" y="1230" as="sourcePoint" />
            <mxPoint x="1559.9599999999996" y="1200" as="targetPoint" />
          </mxGeometry>
        </mxCell>
        <mxCell id="vkavQpKFRlv0VeJYz5XR-115" value="" style="edgeStyle=orthogonalEdgeStyle;rounded=0;orthogonalLoop=1;jettySize=auto;html=1;endArrow=none;endFill=0;" edge="1" parent="1" source="vkavQpKFRlv0VeJYz5XR-114" target="vkavQpKFRlv0VeJYz5XR-82">
          <mxGeometry relative="1" as="geometry" />
        </mxCell>
        <mxCell id="vkavQpKFRlv0VeJYz5XR-120" style="rounded=0;orthogonalLoop=1;jettySize=auto;html=1;exitX=1;exitY=0.5;exitDx=0;exitDy=0;entryX=0;entryY=0.5;entryDx=0;entryDy=0;endArrow=none;endFill=0;" edge="1" parent="1" source="vkavQpKFRlv0VeJYz5XR-114" target="vkavQpKFRlv0VeJYz5XR-91">
          <mxGeometry relative="1" as="geometry" />
        </mxCell>
        <mxCell id="vkavQpKFRlv0VeJYz5XR-114" value="Customer&lt;div&gt;Extended&lt;/div&gt;" style="rhombus;whiteSpace=wrap;html=1;" vertex="1" parent="1">
          <mxGeometry x="1540" y="1120" width="80" height="100" as="geometry" />
        </mxCell>
        <mxCell id="vkavQpKFRlv0VeJYz5XR-118" style="edgeStyle=orthogonalEdgeStyle;rounded=0;orthogonalLoop=1;jettySize=auto;html=1;exitX=0;exitY=0.5;exitDx=0;exitDy=0;entryX=1;entryY=0.75;entryDx=0;entryDy=0;" edge="1" parent="1" source="vkavQpKFRlv0VeJYz5XR-116" target="vkavQpKFRlv0VeJYz5XR-1">
          <mxGeometry relative="1" as="geometry">
            <Array as="points">
              <mxPoint x="1160" y="1160" />
              <mxPoint x="1160" y="1015" />
            </Array>
          </mxGeometry>
        </mxCell>
        <mxCell id="vkavQpKFRlv0VeJYz5XR-116" value="Owns" style="rhombus;whiteSpace=wrap;html=1;" vertex="1" parent="1">
          <mxGeometry x="1170" y="1120" width="80" height="80" as="geometry" />
        </mxCell>
        <mxCell id="vkavQpKFRlv0VeJYz5XR-119" style="edgeStyle=orthogonalEdgeStyle;rounded=0;orthogonalLoop=1;jettySize=auto;html=1;exitX=0.5;exitY=0;exitDx=0;exitDy=0;entryX=0.455;entryY=0.25;entryDx=0;entryDy=0;entryPerimeter=0;" edge="1" parent="1" source="vkavQpKFRlv0VeJYz5XR-93" target="vkavQpKFRlv0VeJYz5XR-93">
          <mxGeometry relative="1" as="geometry" />
        </mxCell>
        <mxCell id="vkavQpKFRlv0VeJYz5XR-122" style="edgeStyle=orthogonalEdgeStyle;rounded=0;orthogonalLoop=1;jettySize=auto;html=1;exitX=0;exitY=0.5;exitDx=0;exitDy=0;entryX=1;entryY=0.25;entryDx=0;entryDy=0;endArrow=block;endFill=0;" edge="1" parent="1" source="vkavQpKFRlv0VeJYz5XR-121" target="vkavQpKFRlv0VeJYz5XR-68">
          <mxGeometry relative="1" as="geometry" />
        </mxCell>
        <mxCell id="vkavQpKFRlv0VeJYz5XR-121" value="Contains" style="rhombus;whiteSpace=wrap;html=1;" vertex="1" parent="1">
          <mxGeometry x="830" y="740" width="80" height="80" as="geometry" />
        </mxCell>
        <mxCell id="vkavQpKFRlv0VeJYz5XR-123" value="Has" style="rhombus;whiteSpace=wrap;html=1;" vertex="1" parent="1">
          <mxGeometry x="760" y="800" width="80" height="80" as="geometry" />
        </mxCell>
        <mxCell id="vkavQpKFRlv0VeJYz5XR-124" style="edgeStyle=orthogonalEdgeStyle;rounded=0;orthogonalLoop=1;jettySize=auto;html=1;exitX=0;exitY=0.5;exitDx=0;exitDy=0;entryX=1.007;entryY=0.653;entryDx=0;entryDy=0;entryPerimeter=0;endArrow=block;endFill=0;" edge="1" parent="1" source="vkavQpKFRlv0VeJYz5XR-123" target="vkavQpKFRlv0VeJYz5XR-68">
          <mxGeometry relative="1" as="geometry" />
        </mxCell>
      </root>
    </mxGraphModel>
  </diagram>
</mxfile>
